<?xml version="1.0" encoding="utf-8"?>
<!-- Generator: Adobe Illustrator 18.1.1, SVG Export Plug-In . SVG Version: 6.00 Build 0)  -->
<svg version="1.1" id="_x35_" xmlns="http://www.w3.org/2000/svg" xmlns:xlink="http://www.w3.org/1999/xlink" x="0px" y="0px"
	 viewBox="-20 -102.7 800 800" enable-background="new -20 -102.7 800 800" xml:space="preserve">
<g>
	<path fill="#69B6A9" d="M717.3,24.5v615.4c0,31.7-26.7,57.4-59.9,57.4H100.9c-1.8,0-3.6-0.1-5.5-0.3c-26.5-2.3-47.9-21-53.2-45.6
		c-0.5-2.9-0.9-5.7-1-8.7c-0.1-0.9-0.1-1.9-0.1-2.9V24.5c0-4,0.4-7.8,1.2-11.6C45,0,52.3-11.3,62.6-19.6c3.6-2.9,7.5-5.5,11.9-7.4
		c7.9-3.8,16.9-5.8,26.4-5.8h556.5c12.7,0,24.7,3.8,34.4,10.4c4.9,3.4,9.3,7.4,13,11.9c0.6,0.8,1.3,1.7,1.9,2.6
		c1.8,2.6,3.4,5.2,4.8,8.1c0.5,1,1,2.1,1.4,3.1c1.4,3.5,2.6,7.1,3.2,10.9c0.3,1.2,0.5,2.3,0.6,3.6C717.1,20,717.3,22.2,717.3,24.5z"
		/>
	<path fill="#313333" d="M200.7-32.9v730.1H98.4c-0.9,0-1.9,0-2.9-0.1c-26.5-1.3-48.2-20.5-53.4-45.7c-0.5-2.9-0.9-5.7-1-8.7
		c-0.1-0.9-0.1-1.9-0.1-2.9V24.5c0-4,0.4-7.8,1.2-11.6c2.7-13.4,10.1-25.1,20.4-33.4c3.8-2.9,7.8-5.5,12.2-7.3
		c5.3-2.5,11.2-3.8,17.3-4.5c1.3-0.2,2.5-0.3,3.8-0.4c0.9,0,1.7-0.3,2.5-0.3L200.7-32.9L200.7-32.9z"/>
	<polygon fill="#B2536C" points="336.1,263.4 278.6,234.9 221.2,263.4 221.2,-32.9 336.1,-32.9 	"/>
	<path fill="#F5E529" d="M650.9-69.3H227.9h-99.5c-30.9,0-55.9,25.7-55.9,57.4v25.2c0,31.7,25,57.4,55.9,57.4h99.5h422.9
		c30.9,0,55.9-25.7,55.9-57.4v-25.2C706.8-43.6,681.7-69.3,650.9-69.3z"/>
	<polygon fill="#F2F2F2" points="706.8,-4.3 227.9,-4.3 72.5,-4.3 72.5,643.3 227.9,643.3 706.8,643.3 	"/>
	
		<linearGradient id="SVGID_1_" gradientUnits="userSpaceOnUse" x1="32.006" y1="184.5656" x2="437.932" y2="184.5656" gradientTransform="matrix(1.5625 0 0 -1.5625 22.5 928.28)">
		<stop  offset="0" style="stop-color:#FFFFFF"/>
		<stop  offset="0.9952" style="stop-color:#F6F5F5"/>
	</linearGradient>
	<path fill="url(#SVGID_1_)" d="M675.4,667.3H94.4c-12.1,0-21.9-9.9-21.9-21.9v-11c0-12,9.9-21.9,21.9-21.9h590.4
		c12.1,0,21.9,9.9,21.9,21.9v1.5C706.8,653.2,692.6,667.3,675.4,667.3z"/>
	<path fill="#69B6A9" d="M691.8-45.2V570c0,16.9-7.3,32.1-18.8,42.5c-10.1,9.5-23.8,15.1-38.7,15.1H98.4c-8,0-15.6-1.7-22.5-4.7
		c-1.2-0.4-2.3-0.9-3.4-1.6c-3.5-1.8-6.9-3.9-10-6.4c-0.4-0.4-0.9-0.6-1.3-1c-2.9-2.5-5.5-5.2-7.8-8.2C45.7,596,41,583.5,41,570
		V-45.2c0-31.8,25.7-57.5,57.4-57.5h535.9c29.6,0,54.1,22.5,57.3,51.6c0,0,0,0,0,0.1C691.7-49.1,691.8-47.1,691.8-45.2z"/>
	<path fill="#D6D7D7" d="M222.3-102.7v730.2H62.6V-45.2c0-31.7,25.7-57.4,57.4-57.4L222.3-102.7L222.3-102.7z"/>
	<path fill="#505354" d="M200.7-102.7v730.3H41V-45.2c0-31.8,25.7-57.5,57.4-57.5H200.7z"/>
	<polygon fill="#EBE0AC" points="494.8,92.1 430.6,57.4 366.4,92.1 366.4,-102.7 494.8,-102.7 	"/>
	<path fill="#BDB595" d="M459.6-26.4h-21.9l-2.1-6.5l-4.9-15.1h-0.3l-4.8,15.1l-2.1,6.5h-22.1v0.3L419.2-13l-2.9,8.7l-4.2,13.1h0.3
		l17.7-13.1l0.4-0.3l0.4,0.3l17.7,13.1h0.3l-4.2-13.1l-2.9-8.7l17.8-13.1L459.6-26.4L459.6-26.4z"/>
	<path opacity="4.000000e-002" fill="#040000" enable-background="new    " d="M717.3,24.5v615.4c0,31.7-26.7,57.4-59.9,57.4h-559
		c-0.9,0-1.9,0-2.9-0.1c-26.5-1.3-48.2-20.5-53.4-45.7c-0.5-2.9-0.9-5.7-1-8.7c-0.1-0.9-0.1-1.9-0.1-2.9v-22.3l12.5-11.8l9.1-8.6
		l10-9.5l128.2-121.3l21.6-20.4L619,70.8l72.8-68.9l6.4-6.1l6.6-6.2l1.9-1.8v4.4c1.8,2.6,3.4,5.2,4.8,8.1c0.5,1,1,2.1,1.4,3.1
		c1.4,3.5,2.6,7.1,3.2,10.9c0.3,1.2,0.5,2.3,0.6,3.6C717.1,20,717.3,22.2,717.3,24.5z"/>
</g>
</svg>
