<?xml version="1.0" encoding="utf-8"?>
<!-- Generator: Adobe Illustrator 18.1.1, SVG Export Plug-In . SVG Version: 6.00 Build 0)  -->
<svg version="1.1" id="Слой_1" xmlns="http://www.w3.org/2000/svg" xmlns:xlink="http://www.w3.org/1999/xlink" x="0px" y="0px"
	 viewBox="0 0 864 864" enable-background="new 0 0 864 864" xml:space="preserve">
<g>
	<defs>
		<rect id="SVGID_1_" width="864" height="864"/>
	</defs>
	<clipPath id="SVGID_2_">
		<use xlink:href="#SVGID_1_"  overflow="visible"/>
	</clipPath>
	<path clip-path="url(#SVGID_2_)" fill="#76CEDB" d="M765.8,155.4h-464c-63.2,0-114.5,51.2-114.5,114.5v516.3
		c-111.9-78-185-207.6-185-354.4C2.4,193.3,195.7,0,434.1,0C567.4,0,686.6,60.4,765.8,155.4"/>
	<path clip-path="url(#SVGID_2_)" fill="#76CEDB" d="M504.3,336.7c0,46.1-37.4,83.4-83.4,83.4c-46.1,0-83.4-37.4-83.4-83.4
		c0-46.1,37.4-83.4,83.4-83.4C467,253.2,504.3,290.6,504.3,336.7"/>
	<path clip-path="url(#SVGID_2_)" fill="#76CEDB" d="M572.5,661.4H270.3c0-117.5,67.6-212.8,151.1-212.8
		C504.9,448.6,572.5,543.9,572.5,661.4"/>
	
		<line clip-path="url(#SVGID_2_)" fill="none" stroke="#76CEDB" stroke-width="10" stroke-miterlimit="10" x1="623" y1="281.7" x2="812.1" y2="281.7"/>
	
		<line clip-path="url(#SVGID_2_)" fill="none" stroke="#76CEDB" stroke-width="5" stroke-miterlimit="10" x1="623" y1="322.4" x2="812.1" y2="322.4"/>
	
		<line clip-path="url(#SVGID_2_)" fill="none" stroke="#76CEDB" stroke-width="10" stroke-miterlimit="10" x1="623" y1="661.4" x2="812.1" y2="661.4"/>
	
		<line clip-path="url(#SVGID_2_)" fill="none" stroke="#76CEDB" stroke-width="5" stroke-miterlimit="10" x1="270.3" y1="731.4" x2="812.1" y2="731.4"/>
	
		<line clip-path="url(#SVGID_2_)" fill="none" stroke="#76CEDB" stroke-width="5" stroke-miterlimit="10" x1="270.3" y1="758.7" x2="812.1" y2="758.7"/>
	
		<line clip-path="url(#SVGID_2_)" fill="none" stroke="#76CEDB" stroke-width="5" stroke-miterlimit="10" x1="270.3" y1="786.1" x2="812.1" y2="786.1"/>
</g>
</svg>
